<svg version="1.0" xmlns="http://www.w3.org/2000/svg"
 width="77.000000pt" height="79.000000pt" viewBox="0 0 77.000000 79.000000"
 preserveAspectRatio="xMidYMid meet" >
<g transform="translate(0.000000,79.000000) scale(0.100000,-0.100000)"
fill="#206B9F" stroke="none">
<path d="M0 395 l0 -395 385 0 385 0 0 395 0 395 -385 0 -385 0 0 -395z m618
-2 l-3 -178 -237 -3 -238 -2 0 180 0 180 240 0 240 0 -2 -177z"/>
<path d="M226 512 c33 -29 145 -112 150 -112 8 0 154 111 154 116 0 2 -71 4
-157 4 -86 0 -153 -4 -147 -8z" />
<path d="M190 376 l0 -106 185 0 185 0 0 100 c0 55 -3 100 -6 100 -4 0 -37
-24 -73 -53 -109 -89 -102 -87 -157 -41 -27 22 -68 55 -91 73 l-43 33 0 -106z" />
</g>
</svg>
